<?xml version="1.0" encoding="UTF-8" standalone="no"?>
<!DOCTYPE svg PUBLIC "-//W3C//DTD SVG 1.1//EN"
 "http://www.w3.org/Graphics/SVG/1.1/DTD/svg11.dtd">
<!-- Generated by graphviz version 2.39.20160612.1140 (20090106.0545)
 -->
<!-- Title: simulate_data_collection Pages: 1 -->
<svg width="1284pt" height="1068pt"
 viewBox="0.00 0.00 1283.57 1068.20" xmlns="http://www.w3.org/2000/svg" xmlns:xlink="http://www.w3.org/1999/xlink">
<g id="graph0" class="graph" transform="scale(1 1) rotate(0) translate(4 1064.2)">
<title>simulate_data_collection</title>
<polygon fill="white" stroke="transparent" points="-4,4 -4,-1064.2 1279.57,-1064.2 1279.57,4 -4,4"/>
<g id="clust3" class="cluster">
<title>cluster_workflow_inputs_box_outer</title>
<polygon fill="none" stroke="black" stroke-width="0" points="68.57,-1006.2 68.57,-1052.2 274.57,-1052.2 274.57,-1006.2 68.57,-1006.2"/>
</g>
<g id="clust4" class="cluster">
<title>cluster_workflow_inputs_box_inner</title>
<polygon fill="none" stroke="black" stroke-width="0" points="76.57,-1014.2 76.57,-1044.2 266.57,-1044.2 266.57,-1014.2 76.57,-1014.2"/>
</g>
<g id="clust5" class="cluster">
<title>cluster_workflow_outputs_box_outer</title>
<polygon fill="none" stroke="black" stroke-width="0" points="443.57,-8 443.57,-54 585.57,-54 585.57,-8 443.57,-8"/>
</g>
<g id="clust6" class="cluster">
<title>cluster_workflow_outputs_box_inner</title>
<polygon fill="none" stroke="black" stroke-width="0" points="451.57,-16 451.57,-46 577.57,-46 577.57,-16 451.57,-16"/>
</g>
<g id="clust1" class="cluster">
<title>cluster_workflow_box_outer</title>
<polygon fill="none" stroke="black" stroke-width="2" points="15.57,-62 15.57,-998.2 1263.57,-998.2 1263.57,-62 15.57,-62"/>
</g>
<g id="clust2" class="cluster">
<title>cluster_workflow_box_inner</title>
<polygon fill="none" stroke="black" stroke-width="0" points="23.57,-70 23.57,-990.2 1255.57,-990.2 1255.57,-70 23.57,-70"/>
</g>
<!-- calculate_strategy -->
<g id="node1" class="node">
<title>calculate_strategy</title>
<polygon fill="#ccffcc" stroke="black" points="473.42,-670.1 473.42,-736.5 775.72,-736.5 775.72,-670.1 473.42,-670.1"/>
<text text-anchor="middle" x="624.57" y="-719.9" font-family="Helvetica,sans-Serif" font-size="14.00">calculate_strategy</text>
<polyline fill="none" stroke="black" points="473.42,-711.7 775.72,-711.7 "/>
<text text-anchor="middle" x="624.57" y="-695.1" font-family="Helvetica,sans-Serif" font-size="14.00">Reject unsuitable crystals and compute </text>
<text text-anchor="middle" x="624.57" y="-678.3" font-family="Helvetica,sans-Serif" font-size="14.00"> best data sets to collect for accepted crystals.</text>
</g>
<!-- accepted_sample -->
<g id="node8" class="node">
<title>accepted_sample</title>
<path fill="#ffffff" stroke="black" d="M701.27,-633.6C701.27,-633.6 599.87,-633.6 599.87,-633.6 593.87,-633.6 587.87,-627.6 587.87,-621.6 587.87,-621.6 587.87,-609.6 587.87,-609.6 587.87,-603.6 593.87,-597.6 599.87,-597.6 599.87,-597.6 701.27,-597.6 701.27,-597.6 707.27,-597.6 713.27,-603.6 713.27,-609.6 713.27,-609.6 713.27,-621.6 713.27,-621.6 713.27,-627.6 707.27,-633.6 701.27,-633.6"/>
<text text-anchor="middle" x="650.57" y="-611.4" font-family="Helvetica,sans-Serif" font-size="14.00">accepted_sample</text>
</g>
<!-- calculate_strategy&#45;&gt;accepted_sample -->
<g id="edge26" class="edge">
<title>calculate_strategy&#45;&gt;accepted_sample</title>
<path fill="none" stroke="black" d="M634.4,-669.9C637.05,-661.14 639.9,-651.76 642.45,-643.34"/>
<polygon fill="black" stroke="black" points="645.83,-644.25 645.39,-633.67 639.14,-642.22 645.83,-644.25"/>
</g>
<!-- energies -->
<g id="node14" class="node">
<title>energies</title>
<path fill="#ffffff" stroke="black" d="M789.25,-633.6C789.25,-633.6 743.89,-633.6 743.89,-633.6 737.89,-633.6 731.89,-627.6 731.89,-621.6 731.89,-621.6 731.89,-609.6 731.89,-609.6 731.89,-603.6 737.89,-597.6 743.89,-597.6 743.89,-597.6 789.25,-597.6 789.25,-597.6 795.25,-597.6 801.25,-603.6 801.25,-609.6 801.25,-609.6 801.25,-621.6 801.25,-621.6 801.25,-627.6 795.25,-633.6 789.25,-633.6"/>
<text text-anchor="middle" x="766.57" y="-611.4" font-family="Helvetica,sans-Serif" font-size="14.00">energies</text>
</g>
<!-- calculate_strategy&#45;&gt;energies -->
<g id="edge29" class="edge">
<title>calculate_strategy&#45;&gt;energies</title>
<path fill="none" stroke="black" d="M678.25,-669.9C695.32,-659.6 713.81,-648.44 729.44,-639"/>
<polygon fill="black" stroke="black" points="731.53,-641.83 738.28,-633.67 727.91,-635.84 731.53,-641.83"/>
</g>
<!-- num_images -->
<g id="node17" class="node">
<title>num_images</title>
<path fill="#ffffff" stroke="black" d="M557.69,-633.6C557.69,-633.6 485.44,-633.6 485.44,-633.6 479.44,-633.6 473.44,-627.6 473.44,-621.6 473.44,-621.6 473.44,-609.6 473.44,-609.6 473.44,-603.6 479.44,-597.6 485.44,-597.6 485.44,-597.6 557.69,-597.6 557.69,-597.6 563.69,-597.6 569.69,-603.6 569.69,-609.6 569.69,-609.6 569.69,-621.6 569.69,-621.6 569.69,-627.6 563.69,-633.6 557.69,-633.6"/>
<text text-anchor="middle" x="521.57" y="-611.4" font-family="Helvetica,sans-Serif" font-size="14.00">num_images</text>
</g>
<!-- calculate_strategy&#45;&gt;num_images -->
<g id="edge32" class="edge">
<title>calculate_strategy&#45;&gt;num_images</title>
<path fill="none" stroke="black" d="M585.63,-669.9C573.71,-659.98 560.83,-649.27 549.77,-640.07"/>
<polygon fill="black" stroke="black" points="552.01,-637.37 542.08,-633.67 547.53,-642.76 552.01,-637.37"/>
</g>
<!-- rejected_sample -->
<g id="node20" class="node">
<title>rejected_sample</title>
<path fill="#ffffff" stroke="black" d="M423.75,-633.6C423.75,-633.6 329.38,-633.6 329.38,-633.6 323.38,-633.6 317.38,-627.6 317.38,-621.6 317.38,-621.6 317.38,-609.6 317.38,-609.6 317.38,-603.6 323.38,-597.6 329.38,-597.6 329.38,-597.6 423.75,-597.6 423.75,-597.6 429.75,-597.6 435.75,-603.6 435.75,-609.6 435.75,-609.6 435.75,-621.6 435.75,-621.6 435.75,-627.6 429.75,-633.6 423.75,-633.6"/>
<text text-anchor="middle" x="376.57" y="-611.4" font-family="Helvetica,sans-Serif" font-size="14.00">rejected_sample</text>
</g>
<!-- calculate_strategy&#45;&gt;rejected_sample -->
<g id="edge35" class="edge">
<title>calculate_strategy&#45;&gt;rejected_sample</title>
<path fill="none" stroke="black" d="M531.16,-670.02C499.1,-658.94 464.14,-646.86 435.58,-636.99"/>
<polygon fill="black" stroke="black" points="436.36,-633.56 425.76,-633.6 434.07,-640.17 436.36,-633.56"/>
</g>
<!-- collect_data_set -->
<g id="node2" class="node">
<title>collect_data_set</title>
<polygon fill="#ccffcc" stroke="black" points="571.35,-511.5 571.35,-561.1 953.78,-561.1 953.78,-511.5 571.35,-511.5"/>
<text text-anchor="middle" x="762.57" y="-544.5" font-family="Helvetica,sans-Serif" font-size="14.00">collect_data_set</text>
<polyline fill="none" stroke="black" points="571.35,-536.3 953.78,-536.3 "/>
<text text-anchor="middle" x="762.57" y="-519.7" font-family="Helvetica,sans-Serif" font-size="14.00">Collect data set using the given data collection parameters.</text>
</g>
<!-- energy -->
<g id="node15" class="node">
<title>energy</title>
<path fill="#ffffff" stroke="black" d="M489.86,-467.7C489.86,-467.7 455.28,-467.7 455.28,-467.7 449.28,-467.7 443.28,-461.7 443.28,-455.7 443.28,-455.7 443.28,-443.7 443.28,-443.7 443.28,-437.7 449.28,-431.7 455.28,-431.7 455.28,-431.7 489.86,-431.7 489.86,-431.7 495.86,-431.7 501.86,-437.7 501.86,-443.7 501.86,-443.7 501.86,-455.7 501.86,-455.7 501.86,-461.7 495.86,-467.7 489.86,-467.7"/>
<text text-anchor="middle" x="472.57" y="-445.5" font-family="Helvetica,sans-Serif" font-size="14.00">energy</text>
</g>
<!-- collect_data_set&#45;&gt;energy -->
<g id="edge30" class="edge">
<title>collect_data_set&#45;&gt;energy</title>
<path fill="none" stroke="black" d="M626.5,-511.48C588.16,-502.45 547,-490.49 510.57,-475 508.98,-474.33 507.39,-473.59 505.8,-472.8"/>
<polygon fill="black" stroke="black" points="507.3,-469.63 496.85,-467.89 503.93,-475.77 507.3,-469.63"/>
</g>
<!-- frame_number -->
<g id="node16" class="node">
<title>frame_number</title>
<path fill="#ffffff" stroke="black" d="M1118.08,-467.7C1118.08,-467.7 1035.06,-467.7 1035.06,-467.7 1029.06,-467.7 1023.06,-461.7 1023.06,-455.7 1023.06,-455.7 1023.06,-443.7 1023.06,-443.7 1023.06,-437.7 1029.06,-431.7 1035.06,-431.7 1035.06,-431.7 1118.08,-431.7 1118.08,-431.7 1124.08,-431.7 1130.08,-437.7 1130.08,-443.7 1130.08,-443.7 1130.08,-455.7 1130.08,-455.7 1130.08,-461.7 1124.08,-467.7 1118.08,-467.7"/>
<text text-anchor="middle" x="1076.57" y="-445.5" font-family="Helvetica,sans-Serif" font-size="14.00">frame_number</text>
</g>
<!-- collect_data_set&#45;&gt;frame_number -->
<g id="edge31" class="edge">
<title>collect_data_set&#45;&gt;frame_number</title>
<path fill="none" stroke="black" d="M877.01,-511.45C920.45,-501.47 970.14,-488.95 1014.57,-475 1018.31,-473.83 1022.14,-472.54 1025.99,-471.18"/>
<polygon fill="black" stroke="black" points="1027.3,-474.43 1035.5,-467.72 1024.9,-467.85 1027.3,-474.43"/>
</g>
<!-- raw_image -->
<g id="node19" class="node">
<title>raw_image</title>
<path fill="#ffffcc" stroke="black" d="M531.61,-424.9C531.61,-424.9 993.52,-424.9 993.52,-424.9 999.52,-424.9 1005.52,-430.9 1005.52,-436.9 1005.52,-436.9 1005.52,-462.5 1005.52,-462.5 1005.52,-468.5 999.52,-474.5 993.52,-474.5 993.52,-474.5 531.61,-474.5 531.61,-474.5 525.61,-474.5 519.61,-468.5 519.61,-462.5 519.61,-462.5 519.61,-436.9 519.61,-436.9 519.61,-430.9 525.61,-424.9 531.61,-424.9"/>
<text text-anchor="middle" x="762.57" y="-457.9" font-family="Helvetica,sans-Serif" font-size="14.00">raw_image</text>
<polyline fill="none" stroke="black" points="519.61,-449.7 1005.52,-449.7 "/>
<text text-anchor="middle" x="762.57" y="-433.1" font-family="Helvetica,sans-Serif" font-size="14.00">file:run/raw/{cassette_id}/{sample_id}/e{energy}/image_{frame_number}.raw</text>
</g>
<!-- collect_data_set&#45;&gt;raw_image -->
<g id="edge34" class="edge">
<title>collect_data_set&#45;&gt;raw_image</title>
<path fill="none" stroke="black" d="M762.57,-511.28C762.57,-503.07 762.57,-493.71 762.57,-484.85"/>
<polygon fill="black" stroke="black" points="766.07,-484.78 762.57,-474.78 759.07,-484.78 766.07,-484.78"/>
</g>
<!-- run_log -->
<g id="node22" class="node">
<title>run_log</title>
<path fill="#ffffcc" stroke="black" d="M335.94,-251.7C335.94,-251.7 439.19,-251.7 439.19,-251.7 445.19,-251.7 451.19,-257.7 451.19,-263.7 451.19,-263.7 451.19,-289.3 451.19,-289.3 451.19,-295.3 445.19,-301.3 439.19,-301.3 439.19,-301.3 335.94,-301.3 335.94,-301.3 329.94,-301.3 323.94,-295.3 323.94,-289.3 323.94,-289.3 323.94,-263.7 323.94,-263.7 323.94,-257.7 329.94,-251.7 335.94,-251.7"/>
<text text-anchor="middle" x="387.57" y="-284.7" font-family="Helvetica,sans-Serif" font-size="14.00">run_log</text>
<polyline fill="none" stroke="black" points="323.94,-276.5 451.19,-276.5 "/>
<text text-anchor="middle" x="387.57" y="-259.9" font-family="Helvetica,sans-Serif" font-size="14.00">file:run/run_log.txt</text>
</g>
<!-- collect_data_set&#45;&gt;run_log -->
<g id="edge39" class="edge">
<title>collect_data_set&#45;&gt;run_log</title>
<path fill="none" stroke="black" d="M571.05,-518.64C511.19,-509.58 455.33,-495.79 434.57,-475 390.77,-431.14 425.8,-397.62 409.57,-337.8 407.17,-328.97 404.05,-319.6 400.91,-310.95"/>
<polygon fill="black" stroke="black" points="404.18,-309.69 397.4,-301.55 397.62,-312.14 404.18,-309.69"/>
</g>
<!-- sample_id -->
<g id="node23" class="node">
<title>sample_id</title>
<path fill="#ffffff" stroke="black" d="M1215.35,-467.7C1215.35,-467.7 1159.78,-467.7 1159.78,-467.7 1153.78,-467.7 1147.78,-461.7 1147.78,-455.7 1147.78,-455.7 1147.78,-443.7 1147.78,-443.7 1147.78,-437.7 1153.78,-431.7 1159.78,-431.7 1159.78,-431.7 1215.35,-431.7 1215.35,-431.7 1221.35,-431.7 1227.35,-437.7 1227.35,-443.7 1227.35,-443.7 1227.35,-455.7 1227.35,-455.7 1227.35,-461.7 1221.35,-467.7 1215.35,-467.7"/>
<text text-anchor="middle" x="1187.57" y="-445.5" font-family="Helvetica,sans-Serif" font-size="14.00">sample_id</text>
</g>
<!-- collect_data_set&#45;&gt;sample_id -->
<g id="edge41" class="edge">
<title>collect_data_set&#45;&gt;sample_id</title>
<path fill="none" stroke="black" d="M954.17,-516.37C1014.43,-507.32 1080.61,-494.12 1139.57,-475 1142.45,-474.06 1145.37,-472.98 1148.28,-471.79"/>
<polygon fill="black" stroke="black" points="1149.72,-474.98 1157.44,-467.72 1146.88,-468.58 1149.72,-474.98"/>
</g>
<!-- initialize_run -->
<g id="node3" class="node">
<title>initialize_run</title>
<polygon fill="#ccffcc" stroke="black" points="159.66,-678.5 159.66,-728.1 435.47,-728.1 435.47,-678.5 159.66,-678.5"/>
<text text-anchor="middle" x="297.57" y="-711.5" font-family="Helvetica,sans-Serif" font-size="14.00">initialize_run</text>
<polyline fill="none" stroke="black" points="159.66,-703.3 435.47,-703.3 "/>
<text text-anchor="middle" x="297.57" y="-686.7" font-family="Helvetica,sans-Serif" font-size="14.00">Create run directory and initialize log files.</text>
</g>
<!-- initialize_run&#45;&gt;run_log -->
<g id="edge37" class="edge">
<title>initialize_run&#45;&gt;run_log</title>
<path fill="none" stroke="black" d="M301.93,-678.31C307.59,-640.7 313.98,-566.46 288.57,-511 278.87,-489.85 259.76,-496.37 250.57,-475 241.68,-454.34 242.32,-445.32 250.57,-424.4 269.6,-376.09 312.83,-334.29 345.68,-307.76"/>
<polygon fill="black" stroke="black" points="348.11,-310.3 353.78,-301.35 343.77,-304.81 348.11,-310.3"/>
</g>
<!-- load_screening_results -->
<g id="node4" class="node">
<title>load_screening_results</title>
<polygon fill="#ccffcc" stroke="black" points="343.59,-845.5 343.59,-895.1 629.54,-895.1 629.54,-845.5 343.59,-845.5"/>
<text text-anchor="middle" x="486.57" y="-878.5" font-family="Helvetica,sans-Serif" font-size="14.00">load_screening_results</text>
<polyline fill="none" stroke="black" points="343.59,-870.3 629.54,-870.3 "/>
<text text-anchor="middle" x="486.57" y="-853.7" font-family="Helvetica,sans-Serif" font-size="14.00">Load sample information from spreadsheet.</text>
</g>
<!-- load_screening_results&#45;&gt;run_log -->
<g id="edge38" class="edge">
<title>load_screening_results&#45;&gt;run_log</title>
<path fill="none" stroke="black" d="M485.53,-845.33C484.34,-825.7 481.82,-797.32 476.57,-773 473.01,-756.51 468.45,-753.41 464.57,-737 450.17,-676.09 457.63,-658.81 444.57,-597.6 432.74,-542.18 420.52,-530.6 409.57,-475 398.39,-418.26 392.42,-351.14 389.63,-311.57"/>
<polygon fill="black" stroke="black" points="393.1,-311.15 388.94,-301.41 386.12,-311.62 393.1,-311.15"/>
</g>
<!-- sample_name -->
<g id="node24" class="node">
<title>sample_name</title>
<path fill="#ffffff" stroke="black" d="M725.47,-809C725.47,-809 645.66,-809 645.66,-809 639.66,-809 633.66,-803 633.66,-797 633.66,-797 633.66,-785 633.66,-785 633.66,-779 639.66,-773 645.66,-773 645.66,-773 725.47,-773 725.47,-773 731.47,-773 737.47,-779 737.47,-785 737.47,-785 737.47,-797 737.47,-797 737.47,-803 731.47,-809 725.47,-809"/>
<text text-anchor="middle" x="685.57" y="-786.8" font-family="Helvetica,sans-Serif" font-size="14.00">sample_name</text>
</g>
<!-- load_screening_results&#45;&gt;sample_name -->
<g id="edge42" class="edge">
<title>load_screening_results&#45;&gt;sample_name</title>
<path fill="none" stroke="black" d="M547.9,-845.48C574.95,-834.97 606.44,-822.73 632.48,-812.62"/>
<polygon fill="black" stroke="black" points="633.75,-815.88 641.8,-809 631.21,-809.36 633.75,-815.88"/>
</g>
<!-- sample_quality -->
<g id="node25" class="node">
<title>sample_quality</title>
<path fill="#ffffff" stroke="black" d="M603.42,-809C603.42,-809 517.72,-809 517.72,-809 511.72,-809 505.72,-803 505.72,-797 505.72,-797 505.72,-785 505.72,-785 505.72,-779 511.72,-773 517.72,-773 517.72,-773 603.42,-773 603.42,-773 609.42,-773 615.42,-779 615.42,-785 615.42,-785 615.42,-797 615.42,-797 615.42,-803 609.42,-809 603.42,-809"/>
<text text-anchor="middle" x="560.57" y="-786.8" font-family="Helvetica,sans-Serif" font-size="14.00">sample_quality</text>
</g>
<!-- load_screening_results&#45;&gt;sample_quality -->
<g id="edge43" class="edge">
<title>load_screening_results&#45;&gt;sample_quality</title>
<path fill="none" stroke="black" d="M509.58,-845.27C518.33,-836.12 528.3,-825.7 537.09,-816.52"/>
<polygon fill="black" stroke="black" points="539.76,-818.79 544.15,-809.15 534.71,-813.95 539.76,-818.79"/>
</g>
<!-- log_average_image_intensity -->
<g id="node5" class="node">
<title>log_average_image_intensity</title>
<polygon fill="#ccffcc" stroke="black" points="945.42,-165.1 945.42,-214.7 1247.71,-214.7 1247.71,-165.1 945.42,-165.1"/>
<text text-anchor="middle" x="1096.57" y="-198.1" font-family="Helvetica,sans-Serif" font-size="14.00">log_average_image_intensity</text>
<polyline fill="none" stroke="black" points="945.42,-189.9 1247.71,-189.9 "/>
<text text-anchor="middle" x="1096.57" y="-173.3" font-family="Helvetica,sans-Serif" font-size="14.00">Record statistics about each diffraction image.</text>
</g>
<!-- collection_log -->
<g id="node11" class="node">
<title>collection_log</title>
<path fill="#ffffcc" stroke="black" d="M865.11,-78.5C865.11,-78.5 1036.02,-78.5 1036.02,-78.5 1042.02,-78.5 1048.02,-84.5 1048.02,-90.5 1048.02,-90.5 1048.02,-116.1 1048.02,-116.1 1048.02,-122.1 1042.02,-128.1 1036.02,-128.1 1036.02,-128.1 865.11,-128.1 865.11,-128.1 859.11,-128.1 853.11,-122.1 853.11,-116.1 853.11,-116.1 853.11,-90.5 853.11,-90.5 853.11,-84.5 859.11,-78.5 865.11,-78.5"/>
<text text-anchor="middle" x="950.57" y="-111.5" font-family="Helvetica,sans-Serif" font-size="14.00">collection_log</text>
<polyline fill="none" stroke="black" points="853.11,-103.3 1048.02,-103.3 "/>
<text text-anchor="middle" x="950.57" y="-86.7" font-family="Helvetica,sans-Serif" font-size="14.00">file:run/collected_images.csv</text>
</g>
<!-- log_average_image_intensity&#45;&gt;collection_log -->
<g id="edge27" class="edge">
<title>log_average_image_intensity&#45;&gt;collection_log</title>
<path fill="none" stroke="black" d="M1055.12,-164.88C1038.25,-155.11 1018.59,-143.72 1000.91,-133.47"/>
<polygon fill="black" stroke="black" points="1002.27,-130.22 991.86,-128.23 998.76,-136.27 1002.27,-130.22"/>
</g>
<!-- log_rejected_sample -->
<g id="node6" class="node">
<title>log_rejected_sample</title>
<polygon fill="#ccffcc" stroke="black" points="31.28,-511.5 31.28,-561.1 279.86,-561.1 279.86,-511.5 31.28,-511.5"/>
<text text-anchor="middle" x="155.57" y="-544.5" font-family="Helvetica,sans-Serif" font-size="14.00">log_rejected_sample</text>
<polyline fill="none" stroke="black" points="31.28,-536.3 279.86,-536.3 "/>
<text text-anchor="middle" x="155.57" y="-519.7" font-family="Helvetica,sans-Serif" font-size="14.00">Record which samples were rejected.</text>
</g>
<!-- rejection_log -->
<g id="node21" class="node">
<title>rejection_log</title>
<path fill="#ffffcc" stroke="black" d="M43.44,-424.9C43.44,-424.9 209.69,-424.9 209.69,-424.9 215.69,-424.9 221.69,-430.9 221.69,-436.9 221.69,-436.9 221.69,-462.5 221.69,-462.5 221.69,-468.5 215.69,-474.5 209.69,-474.5 209.69,-474.5 43.44,-474.5 43.44,-474.5 37.44,-474.5 31.44,-468.5 31.44,-462.5 31.44,-462.5 31.44,-436.9 31.44,-436.9 31.44,-430.9 37.44,-424.9 43.44,-424.9"/>
<text text-anchor="middle" x="126.57" y="-457.9" font-family="Helvetica,sans-Serif" font-size="14.00">rejection_log</text>
<polyline fill="none" stroke="black" points="31.44,-449.7 221.69,-449.7 "/>
<text text-anchor="middle" x="126.57" y="-433.1" font-family="Helvetica,sans-Serif" font-size="14.00">file:run/rejected_samples.txt</text>
</g>
<!-- log_rejected_sample&#45;&gt;rejection_log -->
<g id="edge36" class="edge">
<title>log_rejected_sample&#45;&gt;rejection_log</title>
<path fill="none" stroke="black" d="M147.33,-511.28C144.46,-502.89 141.17,-493.3 138.08,-484.27"/>
<polygon fill="black" stroke="black" points="141.37,-483.1 134.82,-474.78 134.75,-485.37 141.37,-483.1"/>
</g>
<!-- transform_images -->
<g id="node7" class="node">
<title>transform_images</title>
<polygon fill="#ccffcc" stroke="black" points="583.04,-338.3 583.04,-387.9 942.09,-387.9 942.09,-338.3 583.04,-338.3"/>
<text text-anchor="middle" x="762.57" y="-371.3" font-family="Helvetica,sans-Serif" font-size="14.00">transform_images</text>
<polyline fill="none" stroke="black" points="583.04,-363.1 942.09,-363.1 "/>
<text text-anchor="middle" x="762.57" y="-346.5" font-family="Helvetica,sans-Serif" font-size="14.00">Correct raw image using the detector calibration image.</text>
</g>
<!-- corrected_image -->
<g id="node12" class="node">
<title>corrected_image</title>
<path fill="#ffffcc" stroke="black" d="M586.16,-251.7C586.16,-251.7 1016.97,-251.7 1016.97,-251.7 1022.97,-251.7 1028.97,-257.7 1028.97,-263.7 1028.97,-263.7 1028.97,-289.3 1028.97,-289.3 1028.97,-295.3 1022.97,-301.3 1016.97,-301.3 1016.97,-301.3 586.16,-301.3 586.16,-301.3 580.16,-301.3 574.16,-295.3 574.16,-289.3 574.16,-289.3 574.16,-263.7 574.16,-263.7 574.16,-257.7 580.16,-251.7 586.16,-251.7"/>
<text text-anchor="middle" x="801.57" y="-284.7" font-family="Helvetica,sans-Serif" font-size="14.00">corrected_image</text>
<polyline fill="none" stroke="black" points="574.16,-276.5 1028.97,-276.5 "/>
<text text-anchor="middle" x="801.57" y="-259.9" font-family="Helvetica,sans-Serif" font-size="14.00">file:run/data/{sample_id}/{sample_id}_{energy}eV_{frame_number}.img</text>
</g>
<!-- transform_images&#45;&gt;corrected_image -->
<g id="edge28" class="edge">
<title>transform_images&#45;&gt;corrected_image</title>
<path fill="none" stroke="black" d="M773.64,-338.08C777.55,-329.6 782.02,-319.9 786.22,-310.79"/>
<polygon fill="black" stroke="black" points="789.46,-312.12 790.47,-301.58 783.1,-309.19 789.46,-312.12"/>
</g>
<!-- pixel_count -->
<g id="node18" class="node">
<title>pixel_count</title>
<path fill="#ffffff" stroke="black" d="M543.87,-294.5C543.87,-294.5 481.27,-294.5 481.27,-294.5 475.27,-294.5 469.27,-288.5 469.27,-282.5 469.27,-282.5 469.27,-270.5 469.27,-270.5 469.27,-264.5 475.27,-258.5 481.27,-258.5 481.27,-258.5 543.87,-258.5 543.87,-258.5 549.87,-258.5 555.87,-264.5 555.87,-270.5 555.87,-270.5 555.87,-282.5 555.87,-282.5 555.87,-288.5 549.87,-294.5 543.87,-294.5"/>
<text text-anchor="middle" x="512.57" y="-272.3" font-family="Helvetica,sans-Serif" font-size="14.00">pixel_count</text>
</g>
<!-- transform_images&#45;&gt;pixel_count -->
<g id="edge33" class="edge">
<title>transform_images&#45;&gt;pixel_count</title>
<path fill="none" stroke="black" d="M675.91,-338.28C641.25,-328.05 601.17,-315.34 565.57,-301.8 562.91,-300.79 560.19,-299.7 557.46,-298.58"/>
<polygon fill="black" stroke="black" points="558.79,-295.34 548.21,-294.62 556.03,-301.77 558.79,-295.34"/>
</g>
<!-- transform_images&#45;&gt;run_log -->
<g id="edge40" class="edge">
<title>transform_images&#45;&gt;run_log</title>
<path fill="none" stroke="black" d="M624.55,-338.28C575.52,-328.9 519.88,-317.19 461.33,-301.88"/>
<polygon fill="black" stroke="black" points="462.09,-298.46 451.52,-299.29 460.3,-305.23 462.09,-298.46"/>
</g>
<!-- total_intensity -->
<g id="node28" class="node">
<title>total_intensity</title>
<path fill="#ffffff" stroke="black" d="M1136.15,-294.5C1136.15,-294.5 1058.99,-294.5 1058.99,-294.5 1052.99,-294.5 1046.99,-288.5 1046.99,-282.5 1046.99,-282.5 1046.99,-270.5 1046.99,-270.5 1046.99,-264.5 1052.99,-258.5 1058.99,-258.5 1058.99,-258.5 1136.15,-258.5 1136.15,-258.5 1142.15,-258.5 1148.15,-264.5 1148.15,-270.5 1148.15,-270.5 1148.15,-282.5 1148.15,-282.5 1148.15,-288.5 1142.15,-294.5 1136.15,-294.5"/>
<text text-anchor="middle" x="1097.57" y="-272.3" font-family="Helvetica,sans-Serif" font-size="14.00">total_intensity</text>
</g>
<!-- transform_images&#45;&gt;total_intensity -->
<g id="edge44" class="edge">
<title>transform_images&#45;&gt;total_intensity</title>
<path fill="none" stroke="black" d="M892.8,-338.25C938.96,-328.56 990.99,-316.22 1037.57,-301.8 1041.16,-300.69 1044.84,-299.45 1048.52,-298.14"/>
<polygon fill="black" stroke="black" points="1050.06,-301.3 1058.21,-294.54 1047.62,-294.74 1050.06,-301.3"/>
</g>
<!-- accepted_sample&#45;&gt;collect_data_set -->
<g id="edge1" class="edge">
<title>accepted_sample&#45;&gt;collect_data_set</title>
<path fill="none" stroke="black" d="M675.42,-597.44C688.35,-588.52 704.53,-577.36 719.42,-567.08"/>
<polygon fill="black" stroke="black" points="721.77,-569.71 728.01,-561.15 717.79,-563.95 721.77,-569.71"/>
</g>
<!-- calibration_image -->
<g id="node9" class="node">
<title>calibration_image</title>
<path fill="#ffffcc" stroke="black" d="M373.25,-467.7C373.25,-467.7 271.88,-467.7 271.88,-467.7 265.88,-467.7 259.88,-461.7 259.88,-455.7 259.88,-455.7 259.88,-443.7 259.88,-443.7 259.88,-437.7 265.88,-431.7 271.88,-431.7 271.88,-431.7 373.25,-431.7 373.25,-431.7 379.25,-431.7 385.25,-437.7 385.25,-443.7 385.25,-443.7 385.25,-455.7 385.25,-455.7 385.25,-461.7 379.25,-467.7 373.25,-467.7"/>
<text text-anchor="middle" x="322.57" y="-445.5" font-family="Helvetica,sans-Serif" font-size="14.00">calibration_image</text>
</g>
<!-- calibration_image&#45;&gt;transform_images -->
<g id="edge2" class="edge">
<title>calibration_image&#45;&gt;transform_images</title>
<path fill="none" stroke="black" d="M385.28,-434.72C401.33,-431.25 418.57,-427.61 434.57,-424.4 494.28,-412.44 560.3,-400.12 617.36,-389.77"/>
<polygon fill="black" stroke="black" points="618.32,-393.15 627.53,-387.93 617.07,-386.26 618.32,-393.15"/>
</g>
<!-- cassette_id -->
<g id="node10" class="node">
<title>cassette_id</title>
<path fill="#ffffff" stroke="black" d="M262.87,-974.9C262.87,-974.9 200.27,-974.9 200.27,-974.9 194.27,-974.9 188.27,-968.9 188.27,-962.9 188.27,-962.9 188.27,-950.9 188.27,-950.9 188.27,-944.9 194.27,-938.9 200.27,-938.9 200.27,-938.9 262.87,-938.9 262.87,-938.9 268.87,-938.9 274.87,-944.9 274.87,-950.9 274.87,-950.9 274.87,-962.9 274.87,-962.9 274.87,-968.9 268.87,-974.9 262.87,-974.9"/>
<text text-anchor="middle" x="231.57" y="-952.7" font-family="Helvetica,sans-Serif" font-size="14.00">cassette_id</text>
</g>
<!-- cassette_id&#45;&gt;collect_data_set -->
<g id="edge6" class="edge">
<title>cassette_id&#45;&gt;collect_data_set</title>
<path fill="none" stroke="black" d="M275.15,-940.51C285.96,-937.14 297.59,-933.91 308.57,-931.6 452.95,-901.25 498.2,-941.04 638.57,-895.6 727.12,-866.93 820.57,-885.08 820.57,-792 820.57,-792 820.57,-792 820.57,-702.3 820.57,-655.55 828.07,-640.94 810.57,-597.6 806.5,-587.54 800.2,-577.8 793.48,-569.19"/>
<polygon fill="black" stroke="black" points="796.04,-566.79 786.97,-561.31 790.64,-571.25 796.04,-566.79"/>
</g>
<!-- cassette_id&#45;&gt;initialize_run -->
<g id="edge3" class="edge">
<title>cassette_id&#45;&gt;initialize_run</title>
<path fill="none" stroke="black" d="M216.72,-938.73C189.49,-905.06 137.32,-828.78 170.57,-773 180.68,-756.04 196.59,-743.01 213.77,-733.1"/>
<polygon fill="black" stroke="black" points="215.72,-736.03 222.85,-728.2 212.39,-729.87 215.72,-736.03"/>
</g>
<!-- cassette_id&#45;&gt;load_screening_results -->
<g id="edge4" class="edge">
<title>cassette_id&#45;&gt;load_screening_results</title>
<path fill="none" stroke="black" d="M275.11,-941.45C310.69,-929.65 361.96,-912.64 405.1,-898.33"/>
<polygon fill="black" stroke="black" points="406.35,-901.6 414.74,-895.13 404.15,-894.96 406.35,-901.6"/>
</g>
<!-- cassette_id&#45;&gt;log_average_image_intensity -->
<g id="edge7" class="edge">
<title>cassette_id&#45;&gt;log_average_image_intensity</title>
<path fill="none" stroke="black" d="M275.11,-940.33C285.92,-936.98 297.57,-933.78 308.57,-931.6 515.27,-890.56 1246.57,-1002.74 1246.57,-792 1246.57,-792 1246.57,-792 1246.57,-362.1 1246.57,-300.42 1190.8,-250.31 1147.27,-220.59"/>
<polygon fill="black" stroke="black" points="1149.01,-217.54 1138.75,-214.92 1145.14,-223.37 1149.01,-217.54"/>
</g>
<!-- cassette_id&#45;&gt;log_rejected_sample -->
<g id="edge5" class="edge">
<title>cassette_id&#45;&gt;log_rejected_sample</title>
<path fill="none" stroke="black" d="M203.19,-938.65C188.21,-928.08 170.85,-913.19 160.57,-895.6 136.91,-855.11 140.57,-838.89 140.57,-792 140.57,-792 140.57,-792 140.57,-702.3 140.57,-656.88 146.27,-604.71 150.65,-571.4"/>
<polygon fill="black" stroke="black" points="154.14,-571.66 152.01,-561.28 147.21,-570.73 154.14,-571.66"/>
</g>
<!-- workflow output collection_log -->
<g id="node35" class="node">
<title>workflow output collection_log</title>
<ellipse fill="#ffffff" stroke="black" cx="562.57" cy="-31" rx="7" ry="7"/>
</g>
<!-- collection_log&#45;&gt;workflow output collection_log -->
<g id="edge51" class="edge">
<title>collection_log&#45;&gt;workflow output collection_log</title>
<path fill="none" stroke="black" d="M852.91,-84.61C759.37,-67.66 625.78,-43.45 579.28,-35.03"/>
<polygon fill="black" stroke="black" points="579.88,-31.58 569.41,-33.24 578.63,-38.47 579.88,-31.58"/>
</g>
<!-- corrected_image&#45;&gt;log_average_image_intensity -->
<g id="edge8" class="edge">
<title>corrected_image&#45;&gt;log_average_image_intensity</title>
<path fill="none" stroke="black" d="M884.92,-251.6C921.83,-241.01 965.4,-228.52 1003.38,-217.62"/>
<polygon fill="black" stroke="black" points="1004.77,-220.87 1013.42,-214.74 1002.84,-214.14 1004.77,-220.87"/>
</g>
<!-- workflow output corrected_image -->
<g id="node36" class="node">
<title>workflow output corrected_image</title>
<ellipse fill="#ffffff" stroke="black" cx="498.57" cy="-31" rx="7" ry="7"/>
</g>
<!-- corrected_image&#45;&gt;workflow output corrected_image -->
<g id="edge52" class="edge">
<title>corrected_image&#45;&gt;workflow output corrected_image</title>
<path fill="none" stroke="black" d="M763.98,-251.58C706.39,-213.87 594.62,-136.37 514.57,-54 512.14,-51.51 509.79,-48.63 507.67,-45.79"/>
<polygon fill="black" stroke="black" points="510.43,-43.63 501.87,-37.39 504.67,-47.61 510.43,-43.63"/>
</g>
<!-- data_redundancy -->
<g id="node13" class="node">
<title>data_redundancy</title>
<path fill="#ffffff" stroke="black" d="M291.73,-809C291.73,-809 191.41,-809 191.41,-809 185.41,-809 179.41,-803 179.41,-797 179.41,-797 179.41,-785 179.41,-785 179.41,-779 185.41,-773 191.41,-773 191.41,-773 291.73,-773 291.73,-773 297.73,-773 303.73,-779 303.73,-785 303.73,-785 303.73,-797 303.73,-797 303.73,-803 297.73,-809 291.73,-809"/>
<text text-anchor="middle" x="241.57" y="-786.8" font-family="Helvetica,sans-Serif" font-size="14.00">data_redundancy</text>
</g>
<!-- data_redundancy&#45;&gt;calculate_strategy -->
<g id="edge9" class="edge">
<title>data_redundancy&#45;&gt;calculate_strategy</title>
<path fill="none" stroke="black" d="M303.89,-775.01C306.82,-774.33 309.73,-773.65 312.57,-773 362.25,-761.58 416.48,-749.51 465.59,-738.72"/>
<polygon fill="black" stroke="black" points="466.64,-742.07 475.66,-736.51 465.14,-735.23 466.64,-742.07"/>
</g>
<!-- energies&#45;&gt;collect_data_set -->
<g id="edge10" class="edge">
<title>energies&#45;&gt;collect_data_set</title>
<path fill="none" stroke="black" d="M765.68,-597.44C765.28,-589.69 764.79,-580.24 764.32,-571.15"/>
<polygon fill="black" stroke="black" points="767.81,-570.96 763.8,-561.15 760.82,-571.32 767.81,-570.96"/>
</g>
<!-- energy&#45;&gt;transform_images -->
<g id="edge11" class="edge">
<title>energy&#45;&gt;transform_images</title>
<path fill="none" stroke="black" d="M496.85,-431.51C501.27,-428.86 505.95,-426.36 510.57,-424.4 543.87,-410.25 581.12,-399.03 616.56,-390.31"/>
<polygon fill="black" stroke="black" points="617.59,-393.66 626.5,-387.92 615.96,-386.85 617.59,-393.66"/>
</g>
<!-- frame_number&#45;&gt;log_average_image_intensity -->
<g id="edge13" class="edge">
<title>frame_number&#45;&gt;log_average_image_intensity</title>
<path fill="none" stroke="black" d="M1089.97,-431.41C1109.38,-405.15 1144.43,-352.85 1157.57,-301.8 1163.17,-280.02 1166.23,-271.95 1157.57,-251.2 1153.04,-240.36 1145.51,-230.47 1137.26,-221.98"/>
<polygon fill="black" stroke="black" points="1139.51,-219.3 1129.88,-214.89 1134.66,-224.35 1139.51,-219.3"/>
</g>
<!-- frame_number&#45;&gt;transform_images -->
<g id="edge12" class="edge">
<title>frame_number&#45;&gt;transform_images</title>
<path fill="none" stroke="black" d="M1035.5,-431.68C1028.57,-429.08 1021.41,-426.55 1014.57,-424.4 973.44,-411.49 927.8,-399.8 886.78,-390.22"/>
<polygon fill="black" stroke="black" points="887.54,-386.8 877.01,-387.95 885.96,-393.62 887.54,-386.8"/>
</g>
<!-- num_images&#45;&gt;collect_data_set -->
<g id="edge14" class="edge">
<title>num_images&#45;&gt;collect_data_set</title>
<path fill="none" stroke="black" d="M569.76,-599.14C600.9,-589.15 642.28,-575.88 678.71,-564.2"/>
<polygon fill="black" stroke="black" points="679.89,-567.49 688.35,-561.11 677.76,-560.83 679.89,-567.49"/>
</g>
<!-- pixel_count&#45;&gt;log_average_image_intensity -->
<g id="edge15" class="edge">
<title>pixel_count&#45;&gt;log_average_image_intensity</title>
<path fill="none" stroke="black" d="M545.61,-258.42C552.09,-255.63 558.94,-253.05 565.57,-251.2 686.79,-217.46 828.61,-202.54 935.17,-195.98"/>
<polygon fill="black" stroke="black" points="935.6,-199.46 945.37,-195.37 935.18,-192.47 935.6,-199.46"/>
</g>
<!-- raw_image&#45;&gt;transform_images -->
<g id="edge16" class="edge">
<title>raw_image&#45;&gt;transform_images</title>
<path fill="none" stroke="black" d="M762.57,-424.68C762.57,-416.47 762.57,-407.11 762.57,-398.25"/>
<polygon fill="black" stroke="black" points="766.07,-398.18 762.57,-388.18 759.07,-398.18 766.07,-398.18"/>
</g>
<!-- rejected_sample&#45;&gt;log_rejected_sample -->
<g id="edge17" class="edge">
<title>rejected_sample&#45;&gt;log_rejected_sample</title>
<path fill="none" stroke="black" d="M327.79,-597.54C300.15,-587.87 264.91,-575.54 233.52,-564.57"/>
<polygon fill="black" stroke="black" points="234.51,-561.2 223.91,-561.21 232.2,-567.81 234.51,-561.2"/>
</g>
<!-- workflow output rejection_log -->
<g id="node37" class="node">
<title>workflow output rejection_log</title>
<ellipse fill="#ffffff" stroke="black" cx="466.57" cy="-31" rx="7" ry="7"/>
</g>
<!-- rejection_log&#45;&gt;workflow output rejection_log -->
<g id="edge53" class="edge">
<title>rejection_log&#45;&gt;workflow output rejection_log</title>
<path fill="none" stroke="black" d="M136.54,-424.79C149.24,-392.13 169.57,-331.44 169.57,-277.5 169.57,-277.5 169.57,-277.5 169.57,-188.9 169.57,-61.53 385.78,-37.29 449.25,-32.92"/>
<polygon fill="black" stroke="black" points="449.75,-36.39 459.52,-32.3 449.33,-29.41 449.75,-36.39"/>
</g>
<!-- workflow output run_log -->
<g id="node38" class="node">
<title>workflow output run_log</title>
<ellipse fill="#ffffff" stroke="black" cx="530.57" cy="-31" rx="7" ry="7"/>
</g>
<!-- run_log&#45;&gt;workflow output run_log -->
<g id="edge54" class="edge">
<title>run_log&#45;&gt;workflow output run_log</title>
<path fill="none" stroke="black" d="M401.8,-251.26C431.37,-200.91 498.66,-86.33 522.23,-46.2"/>
<polygon fill="black" stroke="black" points="525.39,-47.72 527.44,-37.33 519.36,-44.18 525.39,-47.72"/>
</g>
<!-- sample_id&#45;&gt;log_average_image_intensity -->
<g id="edge19" class="edge">
<title>sample_id&#45;&gt;log_average_image_intensity</title>
<path fill="none" stroke="black" d="M1189.47,-431.67C1192.68,-395.95 1196.01,-311.5 1164.57,-251.2 1158.81,-240.16 1150.14,-230.2 1140.9,-221.7"/>
<polygon fill="black" stroke="black" points="1142.91,-218.81 1133.06,-214.91 1138.33,-224.1 1142.91,-218.81"/>
</g>
<!-- sample_id&#45;&gt;transform_images -->
<g id="edge18" class="edge">
<title>sample_id&#45;&gt;transform_images</title>
<path fill="none" stroke="black" d="M1157.44,-431.68C1151.64,-428.92 1145.52,-426.33 1139.57,-424.4 1079.99,-405.08 1013.03,-391.8 952.26,-382.75"/>
<polygon fill="black" stroke="black" points="952.57,-379.26 942.17,-381.27 951.56,-386.18 952.57,-379.26"/>
</g>
<!-- sample_name&#45;&gt;calculate_strategy -->
<g id="edge20" class="edge">
<title>sample_name&#45;&gt;calculate_strategy</title>
<path fill="none" stroke="black" d="M673.22,-772.66C667.46,-764.56 660.33,-754.54 653.33,-744.7"/>
<polygon fill="black" stroke="black" points="656.15,-742.64 647.5,-736.52 650.45,-746.7 656.15,-742.64"/>
</g>
<!-- sample_quality&#45;&gt;calculate_strategy -->
<g id="edge21" class="edge">
<title>sample_quality&#45;&gt;calculate_strategy</title>
<path fill="none" stroke="black" d="M573.52,-772.66C579.57,-764.56 587.05,-754.54 594.39,-744.7"/>
<polygon fill="black" stroke="black" points="597.32,-746.63 600.5,-736.52 591.71,-742.44 597.32,-746.63"/>
</g>
<!-- sample_score_cutoff -->
<g id="node26" class="node">
<title>sample_score_cutoff</title>
<path fill="#ffffff" stroke="black" d="M455.21,-809C455.21,-809 333.92,-809 333.92,-809 327.92,-809 321.92,-803 321.92,-797 321.92,-797 321.92,-785 321.92,-785 321.92,-779 327.92,-773 333.92,-773 333.92,-773 455.21,-773 455.21,-773 461.21,-773 467.21,-779 467.21,-785 467.21,-785 467.21,-797 467.21,-797 467.21,-803 461.21,-809 455.21,-809"/>
<text text-anchor="middle" x="394.57" y="-786.8" font-family="Helvetica,sans-Serif" font-size="14.00">sample_score_cutoff</text>
</g>
<!-- sample_score_cutoff&#45;&gt;calculate_strategy -->
<g id="edge23" class="edge">
<title>sample_score_cutoff&#45;&gt;calculate_strategy</title>
<path fill="none" stroke="black" d="M440.28,-772.97C465.57,-763.54 497.98,-751.47 528.56,-740.07"/>
<polygon fill="black" stroke="black" points="529.83,-743.34 537.98,-736.56 527.38,-736.78 529.83,-743.34"/>
</g>
<!-- sample_score_cutoff&#45;&gt;initialize_run -->
<g id="edge22" class="edge">
<title>sample_score_cutoff&#45;&gt;initialize_run</title>
<path fill="none" stroke="black" d="M374.94,-772.66C362.7,-761.85 346.61,-747.63 332.27,-734.96"/>
<polygon fill="black" stroke="black" points="334.33,-732.11 324.52,-728.11 329.69,-737.36 334.33,-732.11"/>
</g>
<!-- sample_spreadsheet -->
<g id="node27" class="node">
<title>sample_spreadsheet</title>
<path fill="#ffffcc" stroke="black" d="M329.8,-932.1C329.8,-932.1 593.34,-932.1 593.34,-932.1 599.34,-932.1 605.34,-938.1 605.34,-944.1 605.34,-944.1 605.34,-969.7 605.34,-969.7 605.34,-975.7 599.34,-981.7 593.34,-981.7 593.34,-981.7 329.8,-981.7 329.8,-981.7 323.8,-981.7 317.8,-975.7 317.8,-969.7 317.8,-969.7 317.8,-944.1 317.8,-944.1 317.8,-938.1 323.8,-932.1 329.8,-932.1"/>
<text text-anchor="middle" x="461.57" y="-965.1" font-family="Helvetica,sans-Serif" font-size="14.00">sample_spreadsheet</text>
<polyline fill="none" stroke="black" points="317.8,-956.9 605.34,-956.9 "/>
<text text-anchor="middle" x="461.57" y="-940.3" font-family="Helvetica,sans-Serif" font-size="14.00">file:cassette_{cassette_id}_spreadsheet.csv</text>
</g>
<!-- sample_spreadsheet&#45;&gt;load_screening_results -->
<g id="edge24" class="edge">
<title>sample_spreadsheet&#45;&gt;load_screening_results</title>
<path fill="none" stroke="black" d="M468.66,-931.88C471.12,-923.58 473.92,-914.11 476.56,-905.16"/>
<polygon fill="black" stroke="black" points="479.97,-905.96 479.45,-895.38 473.26,-903.97 479.97,-905.96"/>
</g>
<!-- total_intensity&#45;&gt;log_average_image_intensity -->
<g id="edge25" class="edge">
<title>total_intensity&#45;&gt;log_average_image_intensity</title>
<path fill="none" stroke="black" d="M1097.36,-258.38C1097.25,-248.77 1097.1,-236.43 1096.97,-224.94"/>
<polygon fill="black" stroke="black" points="1100.47,-224.68 1096.85,-214.73 1093.47,-224.77 1100.47,-224.68"/>
</g>
<!-- workflow input calibration_image -->
<g id="node29" class="node">
<title>workflow input calibration_image</title>
<ellipse fill="#ffffff" stroke="black" cx="91.57" cy="-1029.2" rx="7" ry="7"/>
</g>
<!-- workflow input calibration_image&#45;&gt;calibration_image -->
<g id="edge45" class="edge">
<title>workflow input calibration_image&#45;&gt;calibration_image</title>
<path fill="none" stroke="black" d="M86.84,-1023.84C68.56,-1006.5 3.57,-940.01 3.57,-871.3 3.57,-871.3 3.57,-871.3 3.57,-614.6 3.57,-567.79 -10.7,-543.94 22.57,-511 89.24,-444.99 138.9,-495 230.57,-475 237.18,-473.56 244.04,-471.95 250.89,-470.28"/>
<polygon fill="black" stroke="black" points="252.03,-473.6 260.89,-467.78 250.34,-466.81 252.03,-473.6"/>
</g>
<!-- workflow input cassette_id -->
<g id="node30" class="node">
<title>workflow input cassette_id</title>
<ellipse fill="#ffffff" stroke="black" cx="187.57" cy="-1029.2" rx="7" ry="7"/>
</g>
<!-- workflow input cassette_id&#45;&gt;cassette_id -->
<g id="edge46" class="edge">
<title>workflow input cassette_id&#45;&gt;cassette_id</title>
<path fill="none" stroke="black" d="M191.02,-1022.68C196.29,-1014.27 206.66,-997.69 215.6,-983.41"/>
<polygon fill="black" stroke="black" points="218.58,-985.25 220.92,-974.91 212.65,-981.53 218.58,-985.25"/>
</g>
<!-- workflow input corrected_image -->
<g id="node31" class="node">
<title>workflow input corrected_image</title>
<ellipse fill="#ffffff" stroke="black" cx="251.57" cy="-1029.2" rx="7" ry="7"/>
</g>
<!-- workflow input corrected_image&#45;&gt;corrected_image -->
<g id="edge47" class="edge">
<title>workflow input corrected_image&#45;&gt;corrected_image</title>
<path fill="none" stroke="black" d="M258.65,-1027.9C349.13,-1023.94 1275.57,-980.79 1275.57,-871.3 1275.57,-871.3 1275.57,-871.3 1275.57,-448.7 1275.57,-379.65 1095.38,-330.67 957.2,-303.25"/>
<polygon fill="black" stroke="black" points="957.81,-299.81 947.33,-301.32 956.47,-306.68 957.81,-299.81"/>
</g>
<!-- workflow input data_redundancy -->
<g id="node32" class="node">
<title>workflow input data_redundancy</title>
<ellipse fill="#ffffff" stroke="black" cx="123.57" cy="-1029.2" rx="7" ry="7"/>
</g>
<!-- workflow input data_redundancy&#45;&gt;data_redundancy -->
<g id="edge48" class="edge">
<title>workflow input data_redundancy&#45;&gt;data_redundancy</title>
<path fill="none" stroke="black" d="M120.25,-1022.83C117.24,-1018.17 112.52,-1011.39 107.57,-1006.2 103.64,-1002.08 100.03,-1003.33 97.57,-998.2 68.07,-936.83 58.61,-900.85 97.57,-845 114.06,-821.36 142.34,-808.23 169.49,-800.96"/>
<polygon fill="black" stroke="black" points="170.54,-804.3 179.42,-798.53 168.88,-797.5 170.54,-804.3"/>
</g>
<!-- workflow input sample_score_cutoff -->
<g id="node33" class="node">
<title>workflow input sample_score_cutoff</title>
<ellipse fill="#ffffff" stroke="black" cx="155.57" cy="-1029.2" rx="7" ry="7"/>
</g>
<!-- workflow input sample_score_cutoff&#45;&gt;sample_score_cutoff -->
<g id="edge49" class="edge">
<title>workflow input sample_score_cutoff&#45;&gt;sample_score_cutoff</title>
<path fill="none" stroke="black" d="M155.59,-1021.9C155.96,-1005.47 158.91,-960.59 179.57,-931.6 219.97,-874.91 291.27,-835.38 340.62,-813.2"/>
<polygon fill="black" stroke="black" points="342.13,-816.36 349.87,-809.13 339.31,-809.95 342.13,-816.36"/>
</g>
<!-- workflow input sample_spreadsheet -->
<g id="node34" class="node">
<title>workflow input sample_spreadsheet</title>
<ellipse fill="#ffffff" stroke="black" cx="219.57" cy="-1029.2" rx="7" ry="7"/>
</g>
<!-- workflow input sample_spreadsheet&#45;&gt;sample_spreadsheet -->
<g id="edge50" class="edge">
<title>workflow input sample_spreadsheet&#45;&gt;sample_spreadsheet</title>
<path fill="none" stroke="black" d="M222.11,-1022.52C224.73,-1017.4 229.3,-1010.07 235.57,-1006.2 253.96,-994.83 262.34,-1002.37 283.57,-998.2 305.5,-993.89 328.87,-988.9 351.21,-983.92"/>
<polygon fill="black" stroke="black" points="352.06,-987.32 361.06,-981.72 350.53,-980.49 352.06,-987.32"/>
</g>
</g>
</svg>
